<?xml version="1.0" ?>
<!-- Uploaded to: SVG Repo, www.svgrepo.com, Generator: SVG Repo Mixer Tools -->
<svg fill="#000000" width="800px" height="800px" viewBox="0 0 32 32" xmlns="http://www.w3.org/2000/svg">
<title/>
<g id="Love">
<path d="M26.49,30H5.5A3.35,3.35,0,0,1,3,29a3.35,3.35,0,0,1-1-2.48V5.5A3.35,3.35,0,0,1,3,3,3.35,3.35,0,0,1,5.5,2h21A3.35,3.35,0,0,1,29,3,3.35,3.35,0,0,1,30,5.5v21A3.52,3.52,0,0,1,26.49,30ZM16,24.43a35.75,35.75,0,0,0,7.37-6.67,8.84,8.84,0,0,0,2.26-5.29,5.2,5.2,0,0,0-.16-1.3,4.58,4.58,0,0,0-1.62-2.46,5.5,5.5,0,0,0-2.93-1.1c-.22,0-.42,0-.6,0a4.46,4.46,0,0,0-1.85.36,4.85,4.85,0,0,0-1.43,1,5.93,5.93,0,0,0-1,1.4,4.73,4.73,0,0,0-1.05-1.43,4.62,4.62,0,0,0-1.49-.92,5.3,5.3,0,0,0-1.92-.33,5.7,5.7,0,0,0-2.45.5,4.68,4.68,0,0,0-2.55,3.28,6.11,6.11,0,0,0-.12,1.2,8.51,8.51,0,0,0,2.37,5.32A46.47,46.47,0,0,0,16,24.43Z"/>
</g>
</svg>